<?xml version="1.0" standalone="no"?><!DOCTYPE svg PUBLIC "-//W3C//DTD SVG 1.1//EN" "http://www.w3.org/Graphics/SVG/1.1/DTD/svg11.dtd"><svg t="1554514781498" class="icon" style="" viewBox="0 0 1024 1024" version="1.1" xmlns="http://www.w3.org/2000/svg" p-id="1580" xmlns:xlink="http://www.w3.org/1999/xlink" width="200" height="200"><defs><style type="text/css"></style></defs><path d="M858.026667 307.2H186.026667c-12.373333 0-22.186667-9.813333-22.186667-22.186667v-23.466666c0-12.373333 9.813333-22.186667 22.186667-22.186667h672c12.373333 0 22.186667 9.813333 22.186666 22.186667v23.466666c0 12.373333-9.813333 22.186667-22.186666 22.186667zM858.026667 546.133333H186.026667c-12.373333 0-22.186667-9.813333-22.186667-22.186666v-23.466667c0-12.373333 9.813333-22.186667 22.186667-22.186667h672c12.373333 0 22.186667 9.813333 22.186666 22.186667v23.466667c0 12.373333-9.813333 22.186667-22.186666 22.186666zM858.026667 785.066667H186.026667c-12.373333 0-22.186667-9.813333-22.186667-22.186667v-23.466667c0-12.373333 9.813333-22.186667 22.186667-22.186666h672c12.373333 0 22.186667 9.813333 22.186666 22.186666v23.466667c0 12.373333-9.813333 22.186667-22.186666 22.186667z" fill="#4C4C4C" p-id="1581"></path></svg>